<svg xmlns="http://www.w3.org/2000/svg" viewBox="0 0 462 173.778"><path d="M22.348 85.348V3.344a1.28 1.28 0 0 0-1.282-1.282H3.94a1.28 1.28 0 0 0-1.282 1.282v82.004c0 21.706 17.567 39.365 39.16 39.365h8.257a1.28 1.28 0 0 0 1.282-1.282v-17.126a1.28 1.28 0 0 0-1.282-1.282h-8.257c-10.736 0-19.47-8.826-19.47-19.674zm80.506-57.954c-26.887 0-48.761 21.875-48.761 48.762s21.874 48.761 48.761 48.761 48.762-21.873 48.762-48.761-21.875-48.762-48.762-48.762zm0 77.834c-16.03 0-29.072-13.042-29.072-29.072s13.041-29.073 29.072-29.073 29.072 13.042 29.072 29.073-13.042 29.072-29.072 29.072zm125.905-22.535c0 12.93-10.752 23.396-23.785 22.928-12.441-.447-22.102-11.086-22.102-23.535V28.974c0-.76-.616-1.376-1.376-1.376h-16.92c-.77 0-1.394.624-1.394 1.394v52.946c0 23.367 18.486 42.96 41.85 43.381 23.865.43 43.416-18.858 43.416-42.626V28.969a1.37 1.37 0 0 0-1.371-1.371h-16.92a1.4 1.4 0 0 0-1.398 1.398v53.696zm205.587 11.643a1.55 1.55 0 0 0-1.223.61c-5.896 7.604-15.033 12.121-24.593 12.121-12.91 0-24.482-8.042-29.034-20.091-.047-.124.047-.26.18-.26h78.358l.065-.262c.797-3.19 1.236-6.92 1.236-10.503 0-28.127-22.791-51.008-50.805-51.008s-50.805 22.882-50.805 51.008c0 28.013 22.791 50.805 50.805 50.805 19.776 0 38.021-12.223 46.154-30.207.47-1.04-.292-2.222-1.433-2.222l-18.903.009zm-25.817-49.704c13.647 0 25.759 9.069 29.703 22.145.037.122-.057.248-.184.248h-59.242c-.128 0-.221-.126-.184-.248 3.948-13.076 16.143-22.145 29.908-22.145zM301.26 26.79c-8.247-1.078-16.155-.087-23.314 2.49-.551.198-.915.73-.915 1.316v20.221c0 .604.675.976 1.176.638a29.32 29.32 0 0 1 18.2-5.02c14.807.854 26.877 12.852 27.79 27.655 1.058 17.144-12.59 31.433-29.511 31.433a29.17 29.17 0 0 1-9.171-1.483c-3.078-1.017-5.852-2.594-8.687-4.444l-2.506-1.613c-.677-.361-1.519-.107-1.883.568l-34.42 63.827c-.37.687-.113 1.545.574 1.915l15.155 8.165a1.4 1.4 0 0 0 1.893-.567l25.924-48.119a49.31 49.31 0 0 0 13.119 1.778c29.14 0 52.492-25.262 49.303-55.036-2.417-22.564-20.228-40.782-42.73-43.723z" fill="#f2522e"/><path d="M307.379 72.083c-4.95 0-8.963-4.013-8.963-8.963 0-2.216.834-4.218 2.167-5.782-1.517-.38-3.095-.604-4.729-.604a19.44 19.44 0 0 0-19.435 19.435 19.44 19.44 0 0 0 19.435 19.435 19.44 19.44 0 0 0 19.435-19.435c0-2.475-.481-4.834-1.325-7.011-1.639 1.786-3.97 2.925-6.585 2.925z" fill="#fcccc1"/></svg>
