<svg xmlns="http://www.w3.org/2000/svg" viewBox="0 0 128 173.778"><path d="M76.097 1.948C66.445.687 57.189 1.846 48.812 4.862c-.645.232-1.07.854-1.07 1.54v23.666a.89.89 0 0 0 1.376.747c6.031-4.078 13.388-6.331 21.301-5.875 17.329.999 31.455 15.042 32.524 32.366 1.238 20.065-14.734 36.787-34.538 36.787-3.751 0-7.354-.619-10.733-1.735-3.602-1.19-6.849-3.036-10.167-5.201l-2.932-1.887a1.63 1.63 0 0 0-2.203.665L2.085 160.633c-.433.804-.133 1.808.672 2.241l17.737 9.556c.795.428 1.787.131 2.215-.664l30.34-56.316c4.893 1.348 10.038 2.081 15.354 2.081 34.104 0 61.434-29.565 57.702-64.411-2.828-26.407-23.674-47.729-50.008-51.17z" fill="#f2522e"/><path d="M83.195 55.046c-5.833 0-10.561-4.728-10.561-10.561 0-2.611.983-4.97 2.553-6.813-1.787-.448-3.646-.711-5.572-.711-12.647 0-22.9 10.252-22.9 22.9s10.253 22.9 22.9 22.9 22.9-10.252 22.9-22.9c0-2.917-.567-5.696-1.561-8.261-1.931 2.105-4.678 3.447-7.759 3.447z" fill="#fcccc1"/></svg>
